<svg width="18" height="14" viewBox="0 0 18 14" fill="none" xmlns="http://www.w3.org/2000/svg">
<path fill-rule="evenodd" clip-rule="evenodd" d="M0.000125885 1C0.000125885 0.447715 0.390071 0 0.871094 0H17.1292C17.6102 0 18.0001 0.447715 18.0001 1C18.0001 1.55228 17.6102 2 17.1292 2H0.871094C0.390071 2 0.000125885 1.55228 0.000125885 1Z" fill="white"/>
<path fill-rule="evenodd" clip-rule="evenodd" d="M0.000125885 7C0.000125885 6.44772 0.390071 6 0.871094 6H17.1292C17.6102 6 18.0001 6.44772 18.0001 7C18.0001 7.55228 17.6102 8 17.1292 8H0.871094C0.390071 8 0.000125885 7.55228 0.000125885 7Z" fill="white"/>
<path fill-rule="evenodd" clip-rule="evenodd" d="M0 13C0 12.4477 0.389946 12 0.870968 12H17.129C17.6101 12 18 12.4477 18 13C18 13.5523 17.6101 14 17.129 14H0.870968C0.389946 14 0 13.5523 0 13Z" fill="white"/>
</svg>
