<svg width="24" height="24" viewBox="0 0 24 24" fill="none" xmlns="http://www.w3.org/2000/svg">
<path fill-rule="evenodd" clip-rule="evenodd" d="M12.0042 6.30029C12.4184 6.30029 12.7542 6.63608 12.7542 7.05029V21C12.7542 21.4143 12.4184 21.75 12.0042 21.75C11.5899 21.75 11.2542 21.4143 11.2542 21V7.05029C11.2542 6.63608 11.5899 6.30029 12.0042 6.30029Z" fill="white"/>
<path fill-rule="evenodd" clip-rule="evenodd" d="M11.4697 6.46967C11.7626 6.17678 12.2374 6.17678 12.5303 6.46967L18.5303 12.4697C18.8232 12.7626 18.8232 13.2374 18.5303 13.5303C18.2374 13.8232 17.7626 13.8232 17.4697 13.5303L12 8.06066L6.53033 13.5303C6.23744 13.8232 5.76256 13.8232 5.46967 13.5303C5.17678 13.2374 5.17678 12.7626 5.46967 12.4697L11.4697 6.46967Z" fill="white"/>
<path fill-rule="evenodd" clip-rule="evenodd" d="M5.25 3C5.25 2.58579 5.58579 2.25 6 2.25H18C18.4142 2.25 18.75 2.58579 18.75 3C18.75 3.41421 18.4142 3.75 18 3.75H6C5.58579 3.75 5.25 3.41421 5.25 3Z" fill="white"/>
</svg>
